<svg width="172" height="58" viewBox="0 0 172 58" fill="none" xmlns="http://www.w3.org/2000/svg">
<path d="M0.726797 46V3.52H10.4468V37.06H31.3868V46H0.726797ZM54.7634 46.48C50.5634 46.48 47.1034 45.72 44.3834 44.2C41.6634 42.68 39.6434 40.44 38.3234 37.48C37.0434 34.52 36.4034 30.92 36.4034 26.68V3.52H46.1234V27.22C46.1234 28.94 46.3834 30.58 46.9034 32.14C47.4234 33.7 48.3234 34.98 49.6034 35.98C50.8834 36.94 52.6434 37.42 54.8834 37.42C57.1634 37.42 58.8834 36.92 60.0434 35.92C61.2434 34.92 62.0634 33.64 62.5034 32.08C62.9834 30.52 63.2234 28.9 63.2234 27.22V3.52H72.9434V26.68C72.9434 30.88 72.3034 34.46 71.0234 37.42C69.7434 40.38 67.7634 42.64 65.0834 44.2C62.4034 45.72 58.9634 46.48 54.7634 46.48ZM81.176 46V3.52H97.496C101.936 3.52 105.756 4.34 108.956 5.98C112.156 7.62 114.616 10.02 116.336 13.18C118.096 16.34 118.976 20.26 118.976 24.94C118.976 29.46 118.136 33.3 116.456 36.46C114.776 39.58 112.336 41.96 109.136 43.6C105.976 45.2 102.116 46 97.556 46H81.176ZM90.896 37.06H97.616C100.456 37.06 102.696 36.54 104.336 35.5C106.016 34.46 107.216 33.02 107.936 31.18C108.696 29.34 109.076 27.22 109.076 24.82C109.076 22.5 108.716 20.42 107.996 18.58C107.276 16.7 106.056 15.22 104.336 14.14C102.656 13.06 100.316 12.52 97.316 12.52H90.896V37.06Z" fill="white"/>
<path d="M124.039 46V14.38H133.579V46H124.039ZM128.839 11.74C127.079 11.74 125.659 11.22 124.579 10.18C123.539 9.14 123.019 7.78 123.019 6.1C123.019 4.38 123.579 2.98 124.699 1.9C125.819 0.819999 127.219 0.279999 128.899 0.279999C130.499 0.279999 131.859 0.799998 132.979 1.84C134.099 2.88 134.659 4.28 134.659 6.04C134.659 7.76 134.119 9.14 133.039 10.18C131.959 11.22 130.559 11.74 128.839 11.74ZM161.943 57.94V43.06C160.743 44.38 159.303 45.28 157.623 45.76C155.983 46.24 154.403 46.48 152.883 46.48C150.483 46.48 148.363 46.08 146.523 45.28C144.723 44.44 143.223 43.28 142.023 41.8C140.863 40.32 139.983 38.62 139.383 36.7C138.783 34.74 138.483 32.64 138.483 30.4C138.483 27.08 139.083 24.18 140.283 21.7C141.523 19.22 143.263 17.28 145.503 15.88C147.783 14.48 150.423 13.78 153.423 13.78C155.223 13.78 156.883 14.06 158.403 14.62C159.963 15.18 161.223 16.1 162.183 17.38L162.663 14.38H171.483V57.94H161.943ZM155.043 37.84C156.603 37.84 157.883 37.5 158.883 36.82C159.923 36.1 160.703 35.16 161.223 34C161.743 32.84 162.003 31.58 162.003 30.22C162.003 28.78 161.723 27.48 161.163 26.32C160.643 25.16 159.863 24.24 158.823 23.56C157.783 22.84 156.483 22.48 154.923 22.48C153.323 22.48 152.003 22.86 150.963 23.62C149.923 24.34 149.163 25.28 148.683 26.44C148.203 27.56 147.963 28.78 147.963 30.1C147.963 31.38 148.203 32.62 148.683 33.82C149.163 35.02 149.923 36 150.963 36.76C152.003 37.48 153.363 37.84 155.043 37.84Z" fill="#95FF75"/>
</svg>
